<svg width="25" height="25" viewBox="0 0 25 25" fill="none" xmlns="http://www.w3.org/2000/svg">
<path d="M5.023 1.72974C5.47157 2.00043 5.96957 2.44624 6.11155 2.96265C6.12494 3.02308 6.13834 3.0835 6.15215 3.14576C6.23343 3.14445 6.23343 3.14445 6.31635 3.14313C6.8803 3.13449 7.44424 3.12859 8.00824 3.1243C8.21872 3.12233 8.4292 3.11967 8.63967 3.11629C8.9422 3.11155 9.24466 3.10933 9.54723 3.10761C9.64134 3.10559 9.73545 3.10358 9.83241 3.1015C10.4716 3.10129 10.4716 3.10129 10.8021 3.29701C10.9869 3.62412 10.9862 3.91424 10.9755 4.27948C10.9749 4.35046 10.9743 4.42144 10.9738 4.49457C10.9716 4.72049 10.9667 4.94625 10.9617 5.17212C10.9598 5.3256 10.958 5.47908 10.9564 5.63256C10.9521 6.00811 10.9453 6.38355 10.9373 6.75904C11.0174 6.7245 11.0974 6.68996 11.1799 6.65437C11.2852 6.6096 11.3904 6.56484 11.4988 6.51871C11.6031 6.4741 11.7073 6.42949 11.8147 6.38353C12.4736 6.1312 12.8602 6.24454 13.5008 6.51871C13.606 6.56348 13.7113 6.60825 13.8197 6.65437C13.8998 6.68891 13.9798 6.72345 14.0623 6.75904C14.0592 6.61567 14.0592 6.61567 14.0561 6.46941C14.049 6.11416 14.0445 5.75892 14.0408 5.40363C14.0389 5.24998 14.0362 5.09634 14.0328 4.94272C14.0281 4.72162 14.0259 4.50062 14.0242 4.27948C14.0221 4.21101 14.0201 4.14253 14.018 4.07198C14.0179 3.76908 14.0478 3.56205 14.1975 3.29701C14.6013 3.05789 14.9921 3.09775 15.4524 3.10761C15.5494 3.10816 15.6464 3.10871 15.7463 3.10928C16.0558 3.11147 16.3652 3.11637 16.6746 3.12134C16.8845 3.1233 17.0945 3.12508 17.3044 3.12668C17.8188 3.13099 18.3331 3.13752 18.8475 3.14576C18.8772 3.06897 18.907 2.99219 18.9376 2.91308C19.1713 2.34507 19.6068 1.8974 20.1689 1.64772C20.8177 1.47422 21.5872 1.4576 22.2105 1.72974C22.7793 2.07349 23.2403 2.60763 23.4373 3.24341C23.5159 4.00865 23.5471 4.76873 23.0467 5.39185C22.5775 5.88455 22.152 6.23224 21.4579 6.30356C20.623 6.31277 20.0493 6.28101 19.4334 5.69397C19.1229 5.35842 18.9606 5.16067 18.8475 4.70826C17.784 4.70826 16.7205 4.70826 15.6248 4.70826C15.6248 5.64283 15.6248 6.5774 15.6248 7.54029C15.7859 7.57251 15.9471 7.60474 16.1131 7.63794C16.2946 7.70782 16.4742 7.78259 16.6521 7.8611C16.7519 7.90485 16.8516 7.94859 16.9544 7.99366C17.0575 8.03942 17.1605 8.08518 17.2667 8.13233C17.3716 8.17846 17.4765 8.2246 17.5846 8.27214C17.843 8.38583 18.1012 8.49996 18.3592 8.61451C18.3592 8.67896 18.3592 8.74341 18.3592 8.80982C17.8037 9.06168 17.2482 9.3134 16.6926 9.56501C16.5044 9.6503 16.3161 9.73562 16.1279 9.82098C15.6752 10.0262 15.2223 10.231 14.7688 10.4345C14.4429 10.5809 14.1186 10.7299 13.7953 10.8819C13.6564 10.9459 13.5176 11.0099 13.3787 11.0738C13.3174 11.1035 13.256 11.1332 13.1928 11.1638C12.7853 11.349 12.5376 11.3769 12.1092 11.2512C11.8181 11.1392 11.5355 11.0119 11.2524 10.8812C11.1702 10.8439 11.0881 10.8067 11.0034 10.7683C10.741 10.6492 10.479 10.5291 10.2171 10.4089C9.95939 10.2915 9.7016 10.1742 9.4438 10.057C9.27498 9.98018 9.1062 9.90331 8.93746 9.82636C8.17534 9.47928 7.40888 9.14259 6.64043 8.80982C6.64043 8.74537 6.64043 8.68091 6.64043 8.61451C7.04084 8.43459 7.44178 8.25588 7.84282 8.0774C7.95681 8.02616 8.0708 7.97493 8.18824 7.92214C8.29745 7.87367 8.40665 7.82521 8.51917 7.77527C8.61992 7.73027 8.72066 7.68526 8.82446 7.6389C9.08184 7.54029 9.08184 7.54029 9.37481 7.54029C9.37481 6.60572 9.37481 5.67115 9.37481 4.70826C8.31133 4.70826 7.24785 4.70826 6.15215 4.70826C6.0877 4.86939 6.02324 5.03052 5.95684 5.19654C5.60967 5.69667 5.21114 6.15766 4.58965 6.27076C3.81877 6.34343 3.07 6.38513 2.44121 5.88013C1.94851 5.41094 1.60082 4.98543 1.5295 4.29131C1.52033 3.45965 1.55081 2.88443 2.13565 2.27028C2.92108 1.54425 3.9995 1.27619 5.023 1.72974Z" fill="white"/>
<path d="M6.25013 9.27734C7.55622 9.84362 8.86134 10.4119 10.1623 10.9898C10.3959 11.0934 10.6296 11.1968 10.8632 11.3001C11.0129 11.3665 11.1626 11.4329 11.3122 11.4994C11.3816 11.53 11.4509 11.5606 11.5224 11.5922C12.0007 11.8052 12.0007 11.8052 12.1095 11.9141C12.1187 12.1268 12.121 12.3398 12.1206 12.5527C12.1206 12.6194 12.1206 12.686 12.1206 12.7548C12.1206 12.9762 12.1198 13.1976 12.119 13.419C12.1189 13.5721 12.1187 13.7252 12.1186 13.8783C12.1182 14.2821 12.1173 14.6859 12.1162 15.0896C12.1152 15.5014 12.1148 15.9131 12.1143 16.3248C12.1132 17.1332 12.1116 17.9416 12.1095 18.75C11.6801 18.6736 11.3336 18.5379 10.9376 18.3594C10.9407 18.4983 10.9407 18.4983 10.9438 18.64C10.9505 18.9844 10.9554 19.3287 10.9591 19.6731C10.961 19.822 10.9637 19.9709 10.9671 20.1198C10.9718 20.3341 10.9741 20.5483 10.9758 20.7626C10.9788 20.9559 10.9788 20.9559 10.982 21.1532C10.9376 21.4844 10.9376 21.4844 10.8024 21.7224C10.3989 21.9635 10.0084 21.923 9.54755 21.9131C9.45057 21.9126 9.35358 21.912 9.25365 21.9115C8.94416 21.9093 8.63478 21.9044 8.32532 21.8994C8.11539 21.8975 7.90545 21.8957 7.69552 21.8941C7.18113 21.8898 6.66681 21.8832 6.15247 21.875C6.12323 21.9513 6.09398 22.0275 6.06385 22.1061C5.84429 22.6353 5.44943 23.0297 4.97449 23.3398C4.31626 23.5677 3.4289 23.572 2.78944 23.291C2.2206 22.9473 1.75968 22.4131 1.56263 21.7773C1.484 21.0121 1.4528 20.252 1.95325 19.6289C2.42244 19.1362 2.84796 18.7885 3.54208 18.7172C4.37697 18.708 4.95063 18.7397 5.56654 19.3268C5.87705 19.6623 6.03937 19.8601 6.15247 20.3125C7.21595 20.3125 8.27943 20.3125 9.37513 20.3125C9.3429 19.4102 9.31068 18.5078 9.27747 17.5781C8.99876 17.458 8.99876 17.458 8.71442 17.3355C8.53372 17.2567 8.35302 17.1779 8.1724 17.0989C8.04733 17.0444 7.92211 16.9902 7.79675 16.9364C7.61602 16.8587 7.43584 16.7797 7.25568 16.7007C7.14726 16.6537 7.03885 16.6066 6.92714 16.5582C6.62785 16.3994 6.46012 16.2805 6.25013 16.0156C6.20315 15.7128 6.20315 15.7128 6.20578 15.3527C6.20573 15.2869 6.20567 15.2212 6.20561 15.1534C6.20588 14.9367 6.20892 14.7201 6.21198 14.5035C6.21271 14.353 6.21327 14.2024 6.21366 14.0519C6.21515 13.6563 6.21898 13.2608 6.22331 12.8652C6.22731 12.4613 6.22909 12.0574 6.23106 11.6535C6.23524 10.8614 6.24191 10.0694 6.25013 9.27734Z" fill="white"/>
<path d="M18.7612 9.27734C18.7703 10.1492 18.7772 11.0209 18.7815 11.8928C18.7835 12.2976 18.7863 12.7024 18.7907 13.1073C18.7949 13.4979 18.7973 13.8886 18.7983 14.2793C18.799 14.4283 18.8004 14.5774 18.8025 14.7264C18.8054 14.9352 18.8058 15.1439 18.8056 15.3527C18.8064 15.4716 18.8073 15.5904 18.8082 15.7128C18.7518 16.0765 18.6573 16.1837 18.3706 16.4062C18.0842 16.5582 18.0842 16.5582 17.7557 16.7007C17.5791 16.7782 17.5791 16.7782 17.399 16.8571C17.2753 16.9103 17.1516 16.9635 17.0278 17.0166C16.9025 17.0712 16.7773 17.1259 16.6521 17.1806C16.3464 17.314 16.0402 17.4461 15.7339 17.5781C15.7017 18.4805 15.6694 19.3828 15.6362 20.3125C16.6997 20.3125 17.7632 20.3125 18.8589 20.3125C18.9233 20.1514 18.9878 19.9902 19.0542 19.8242C19.3933 19.3047 19.8151 18.9121 20.4214 18.75C21.1017 18.6729 21.7964 18.6393 22.3993 19.0037C22.8761 19.3866 23.2658 19.8199 23.4487 20.4102C23.5274 21.1754 23.5586 21.9355 23.0581 22.5586C22.5889 23.0513 22.1634 23.399 21.4693 23.4703C20.6344 23.4795 20.0607 23.4478 19.4448 22.8607C19.1466 22.5384 18.9545 22.3061 18.8589 21.875C18.8047 21.8759 18.7505 21.8767 18.6947 21.8776C18.1307 21.8863 17.5668 21.8922 17.0028 21.8965C16.7923 21.8984 16.5818 21.9011 16.3714 21.9045C16.0688 21.9092 15.7664 21.9114 15.4638 21.9131C15.3697 21.9152 15.2756 21.9172 15.1786 21.9193C14.5388 21.9195 14.5388 21.9195 14.209 21.7224C14.0204 21.3905 14.0295 21.1432 14.0356 20.7626C14.0361 20.6938 14.0367 20.625 14.0373 20.5541C14.0394 20.3352 14.0443 20.1164 14.0493 19.8975C14.0513 19.7487 14.0531 19.5999 14.0547 19.4511C14.059 19.0872 14.0657 18.7233 14.0737 18.3594C14.0137 18.3876 13.9536 18.4158 13.8918 18.4448C13.8128 18.4811 13.7339 18.5173 13.6526 18.5547C13.5744 18.5909 13.4962 18.6272 13.4157 18.6646C13.1948 18.75 13.1948 18.75 12.9019 18.75C12.9019 16.4941 12.9019 14.2383 12.9019 11.9141C13.6134 11.5583 14.3153 11.212 15.0434 10.8967C15.1292 10.8592 15.2151 10.8217 15.3035 10.7831C15.573 10.6654 15.8426 10.5481 16.1123 10.4309C16.3841 10.3126 16.6558 10.1942 16.9274 10.0756C17.0951 10.0024 17.263 9.92935 17.4309 9.85648C18.7592 9.27734 18.7592 9.27734 18.7612 9.27734Z" fill="white"/>
</svg>
