<svg width="25" height="25" viewBox="0 0 25 25" fill="none" xmlns="http://www.w3.org/2000/svg">
<path d="M12.5 8.33333V2.88333C13.2608 3.17167 13.9608 3.61583 14.5542 4.20833L17.4575 7.11333C18.0508 7.70583 18.495 8.40583 18.7833 9.16667H13.3333C12.8733 9.16667 12.5 8.7925 12.5 8.33333ZM9.65333 18.3333H6.66667C6.20667 18.3333 5.83333 17.96 5.83333 17.5C5.83333 17.04 6.20667 16.6667 6.66667 16.6667H9.225C9.19083 16.3933 9.16667 16.1167 9.16667 15.8333C9.16667 15.55 9.185 15.2733 9.21917 15H6.66667C6.20667 15 5.83333 14.6267 5.83333 14.1667C5.83333 13.7067 6.20667 13.3333 6.66667 13.3333H9.66083C9.9075 12.7267 10.2433 12.1683 10.6483 11.6667H6.66667C6.20667 11.6667 5.83333 11.2933 5.83333 10.8333C5.83333 10.3733 6.20667 10 6.66667 10H11.4783C11.0792 9.5575 10.8333 8.975 10.8333 8.33333V2.52C10.6992 2.51083 10.565 2.5 10.4292 2.5H6.66667C4.36917 2.5 2.5 4.36917 2.5 6.66667V18.3333C2.5 20.6308 4.36917 22.5 6.66667 22.5H15C15.095 22.5 15.1842 22.4783 15.2775 22.4717C12.7225 22.26 10.5767 20.61 9.65333 18.3333ZM19.9258 18.7475C20.7083 17.6483 21.0633 16.2242 20.7258 14.7117C20.3142 12.8692 18.8283 11.3817 16.9842 10.9775C13.3467 10.1808 10.1817 13.3467 10.9775 16.9842C11.3817 18.8283 12.8692 20.3142 14.7117 20.7258C16.225 21.0642 17.6492 20.7083 18.7475 19.9258L21.0775 22.2558C21.4025 22.5808 21.9308 22.5808 22.2558 22.2558C22.5808 21.9308 22.5808 21.4025 22.2558 21.0775L19.9258 18.7475ZM16.48 17.8867L16.4767 17.89C15.8567 18.51 14.7617 18.5117 14.1242 17.8742L12.8617 16.5617C12.5517 16.2392 12.5517 15.7292 12.8617 15.4067C13.1892 15.0658 13.7342 15.0658 14.0617 15.4067L15.3075 16.7008L17.7242 14.225C18.0508 13.89 18.5892 13.89 18.9158 14.225C19.2325 14.5483 19.2325 15.0658 18.9158 15.3892L16.4783 17.8867H16.48Z" fill="white"/>
</svg>
