<svg width="20" height="19" viewBox="0 0 20 19" fill="none" xmlns="http://www.w3.org/2000/svg">
<path d="M14.6344 8.56686C15.951 8.56686 17.2136 9.08986 18.1446 10.0208C19.0756 10.9518 19.5986 12.2144 19.5986 13.531C19.5986 14.8476 19.0756 16.1102 18.1446 17.0412C17.2136 17.9722 15.951 18.4952 14.6344 18.4952C13.3178 18.4952 12.0552 17.9722 11.1242 17.0412C10.1933 16.1102 9.67027 14.8476 9.67027 13.531C9.67027 12.2144 10.1933 10.9518 11.1242 10.0208C12.0552 9.08986 13.3178 8.56686 14.6344 8.56686ZM14.6344 10.372L14.5532 10.3792C14.463 10.3957 14.38 10.4392 14.3152 10.5041C14.2504 10.5689 14.2068 10.6519 14.1904 10.7421L14.1831 10.8233V13.0797H11.9249L11.8437 13.0878C11.7535 13.1043 11.6705 13.1479 11.6057 13.2127C11.5408 13.2775 11.4973 13.3605 11.4808 13.4507L11.4736 13.5319L11.4808 13.6131C11.4973 13.7033 11.5408 13.7863 11.6057 13.8511C11.6705 13.916 11.7535 13.9595 11.8437 13.976L11.9249 13.9832H14.1831V16.2423L14.1904 16.3236C14.2068 16.4137 14.2504 16.4968 14.3152 16.5616C14.38 16.6264 14.463 16.6699 14.5532 16.6864L14.6344 16.6936L14.7157 16.6864C14.8058 16.6699 14.8888 16.6264 14.9537 16.5616C15.0185 16.4968 15.062 16.4137 15.0785 16.3236L15.0857 16.2423V13.9823H17.3457L17.427 13.976C17.5172 13.9595 17.6002 13.916 17.665 13.8511C17.7298 13.7863 17.7733 13.7033 17.7898 13.6131L17.797 13.5319L17.7898 13.4507C17.7733 13.3604 17.7296 13.2773 17.6646 13.2125C17.5996 13.1476 17.5164 13.1042 17.4261 13.0878L17.3448 13.0806H15.0857V10.8242L15.0785 10.743C15.0622 10.6526 15.0187 10.5694 14.9539 10.5044C14.8891 10.4394 14.8059 10.3958 14.7157 10.3792L14.6344 10.372ZM11.4077 -0.0039803C11.7616 -0.00400868 12.1093 0.0884206 12.4164 0.26415C12.7235 0.439879 12.9794 0.692808 13.1587 0.997876L13.8934 2.24975H15.7626C16.5405 2.24975 17.2864 2.55867 17.8365 3.10859C18.3866 3.65851 18.6958 4.40439 18.696 5.18221V9.29794C17.6048 8.24796 16.1488 7.66232 14.6344 7.66428C14.2589 7.66428 13.8916 7.69948 13.5351 7.76718C13.316 7.08977 12.9227 6.48183 12.3947 6.00428C11.8667 5.52673 11.2224 5.19633 10.5265 5.04619C9.83051 4.89605 9.10733 4.93144 8.42937 5.14881C7.75141 5.36619 7.14248 5.75791 6.6636 6.28474C6.18471 6.81157 5.85269 7.455 5.70079 8.15056C5.54889 8.84613 5.58245 9.56939 5.79812 10.2479C6.01378 10.9264 6.40396 11.5363 6.92958 12.0165C7.4552 12.4967 8.09779 12.8304 8.79296 12.9841C8.67173 14.2848 8.98741 15.5888 9.69012 16.69H3.57789C2.79992 16.69 2.05381 16.381 1.50369 15.8309C0.953581 15.2807 0.644531 14.5346 0.644531 13.7567V5.18221C0.644531 4.40423 0.953581 3.65812 1.50369 3.10801C2.05381 2.55789 2.79992 2.24884 3.57789 2.24884H5.45525L6.245 0.963578C6.42659 0.667733 6.68098 0.423372 6.98388 0.253826C7.28679 0.0842799 7.6281 -0.00479099 7.97523 -0.00488281L11.4077 -0.0039803ZM9.67027 6.31042C10.2405 6.31041 10.7961 6.49041 11.258 6.82476C11.7199 7.15911 12.0645 7.63075 12.2426 8.17243C11.5026 8.50375 10.8391 8.9844 10.2936 9.58423C9.74814 10.1841 9.3325 10.8901 9.07276 11.6582C8.42492 11.5095 7.85439 11.1278 7.46983 10.5857C7.08526 10.0435 6.91354 9.37888 6.98735 8.71832C7.06117 8.05776 7.37537 7.44742 7.87012 7.00356C8.36487 6.55969 9.00559 6.3124 9.67027 6.31042Z" fill="#A5A1A1"/>
</svg>
