<svg width="25" height="25" viewBox="0 0 25 25" fill="none" xmlns="http://www.w3.org/2000/svg">
<g clip-path="url(#clip0_6387_55267)">
<path d="M18.0941 12.5H14.1666C13.2461 12.5 12.4999 11.7538 12.4999 10.8333V6.89497C12.5022 6.11802 12.1431 5.38411 11.5282 4.90915C10.9456 4.44774 10.1816 4.28329 9.46073 4.46415C4.56112 5.6804 1.57514 10.6383 2.79143 15.538C3.64834 18.99 6.42991 21.6315 9.92159 22.3091C14.6915 23.2222 19.3457 20.2565 20.5333 15.5475C20.7148 14.8257 20.5506 14.0605 20.0891 13.4766C19.6087 12.8629 18.8735 12.5029 18.0941 12.5Z" fill="white"/>
<path d="M22.209 8.705C22.0188 7.99789 21.7355 7.31918 21.3665 6.68668C20.2568 4.78285 18.4439 3.39078 16.3182 2.81C16.1782 2.77223 15.8648 2.75 15.8648 2.75C15.7529 2.75004 15.2707 2.75 14.889 3.05918C14.328 3.50062 14.2398 4.0025 14.2315 4.04168C14.2024 4.16457 14.1873 4.29039 14.1865 4.41668V8.33336C14.1865 9.71406 15.3058 10.8334 16.6865 10.8334H20.619C21.1407 10.8348 21.6318 10.5871 21.9407 10.1667C22.1691 9.85867 22.2866 9.48242 22.274 9.09918C22.2674 8.96574 22.2456 8.83348 22.209 8.705Z" fill="white"/>
</g>
<defs>
<clipPath id="clip0_6387_55267">
<rect width="20" height="20" fill="white" transform="translate(2.5 2.5)"/>
</clipPath>
</defs>
</svg>
