<svg width="45" height="44" viewBox="0 0 45 44" fill="none" xmlns="http://www.w3.org/2000/svg">
<rect x="0.5" y="0.5" width="44" height="43" rx="4.5" fill="white" stroke="#F3F3F3"/>
<g clip-path="url(#clip0_4414_61133)">
<path d="M28.55 29.4167C28.2083 29.1083 27.675 29.1417 27.375 29.4917C26.9 30.0333 26.2167 30.3417 25.5 30.3417H17.1667C15.7917 30.3417 14.6667 29.2167 14.6667 27.8417V16.1667C14.6667 14.7917 15.7917 13.6667 17.1667 13.6667H20.925C21.0583 13.6667 21.2 13.6667 21.3333 13.6833V17.8333C21.3333 19.2083 22.4583 20.3333 23.8333 20.3333H28.675C28.9333 20.3333 29.175 20.2167 29.3333 20.0083C29.4917 19.8 29.5417 19.5417 29.4833 19.2917C29.225 18.275 28.7 17.35 27.9583 16.6083L25.0583 13.7083C23.9583 12.6083 22.4917 12 20.9333 12H17.1667C14.8667 12 13 13.8667 13 16.1667V27.8333C13 30.1333 14.8667 32 17.1667 32H25.5C26.6917 32 27.8333 31.4833 28.625 30.5917C28.9333 30.25 28.9 29.7167 28.55 29.4167ZM23 14.2167C23.3167 14.4 23.6083 14.625 23.875 14.8917L26.775 17.7917C27.0333 18.05 27.2583 18.35 27.4417 18.6667H23.825C23.3667 18.6667 22.9917 18.2917 22.9917 17.8333V14.2167H23ZM32.275 27.075L30.9333 28.4167C30.7667 28.5833 30.5583 28.6583 30.3417 28.6583C30.125 28.6583 29.9167 28.575 29.75 28.4167C29.425 28.0917 29.425 27.5667 29.75 27.2417L30.825 26.1667H24.6583C24.2 26.1667 23.825 25.7917 23.825 25.3333C23.825 24.875 24.2 24.5 24.6583 24.5H30.825L29.75 23.425C29.425 23.1 29.425 22.575 29.75 22.25C30.075 21.925 30.6 21.925 30.925 22.25L32.2667 23.5917C33.225 24.55 33.225 26.1167 32.2667 27.0833L32.275 27.075Z" fill="#919EAB"/>
</g>
<defs>
<clipPath id="clip0_4414_61133">
<rect width="20" height="20" fill="white" transform="translate(13 12)"/>
</clipPath>
</defs>
</svg>
