<svg width="25" height="25" viewBox="0 0 25 25" fill="none" xmlns="http://www.w3.org/2000/svg">
<path d="M17.5 0.5H7.5C4.743 0.5 2.5 2.743 2.5 5.5V19.5C2.5 22.257 4.743 24.5 7.5 24.5H17.5C20.257 24.5 22.5 22.257 22.5 19.5V5.5C22.5 2.743 20.257 0.5 17.5 0.5ZM10.5 19.5C10.5 20.052 10.052 20.5 9.5 20.5H7.5C6.948 20.5 6.5 20.052 6.5 19.5V17.5C6.5 16.948 6.948 16.5 7.5 16.5H9.5C10.052 16.5 10.5 16.948 10.5 17.5V19.5ZM10.5 13.5C10.5 14.052 10.052 14.5 9.5 14.5H7.5C6.948 14.5 6.5 14.052 6.5 13.5V11.5C6.5 10.948 6.948 10.5 7.5 10.5H9.5C10.052 10.5 10.5 10.948 10.5 11.5V13.5ZM10.5 7.5C10.5 8.052 10.052 8.5 9.5 8.5H7.5C6.948 8.5 6.5 8.052 6.5 7.5V5.5C6.5 4.948 6.948 4.5 7.5 4.5H9.5C10.052 4.5 10.5 4.948 10.5 5.5V7.5ZM17.5 19.5H13.5C12.192 19.494 12.193 17.506 13.5 17.5H17.5C18.808 17.506 18.807 19.494 17.5 19.5ZM17.5 13.5H13.5C12.192 13.494 12.193 11.506 13.5 11.5H17.5C18.808 11.506 18.807 13.494 17.5 13.5ZM17.5 7.5H13.5C12.192 7.494 12.193 5.506 13.5 5.5H17.5C18.808 5.506 18.807 7.494 17.5 7.5Z" fill="white"/>
</svg>
