<svg width="18" height="19" viewBox="0 0 18 19" fill="none" xmlns="http://www.w3.org/2000/svg">
<path d="M12.7118 2.0375C11.721 1.046 10.4025 0.5 9.00001 0.5C7.59751 0.5 6.27901 1.046 5.28751 2.0375C3.24076 4.08425 3.24076 7.415 5.29351 9.46775L7.16476 11.2978C7.67101 11.7928 8.33551 12.0402 9.00001 12.0402C9.66451 12.0402 10.329 11.7928 10.8353 11.2978L12.7118 9.46175C13.7033 8.47025 14.25 7.15175 14.25 5.74925C14.25 4.34675 13.7033 3.02975 12.7118 2.0375ZM9.00001 7.9925C7.75726 7.9925 6.75001 6.98525 6.75001 5.7425C6.75001 4.49975 7.75726 3.4925 9.00001 3.4925C10.2428 3.4925 11.25 4.49975 11.25 5.7425C11.25 6.98525 10.2428 7.9925 9.00001 7.9925ZM18 13.0715C18.0015 13.337 17.8628 13.583 17.6363 13.7188L10.2405 18.1565C9.85801 18.386 9.42901 18.5007 9.00076 18.5007C8.57251 18.5007 8.14276 18.386 7.76101 18.1565L0.363762 13.7188C0.136512 13.5822 -0.0014879 13.3362 1.21046e-05 13.0715C0.0015121 12.8067 0.142512 12.5623 0.371262 12.4288L4.01251 10.2972C4.08751 10.3798 4.16476 10.4615 4.24426 10.541L6.11551 12.3702C6.88651 13.1248 7.91176 13.541 9.00001 13.541C10.0883 13.541 11.1128 13.1248 11.8845 12.3702L13.773 10.523C13.8465 10.4495 13.9185 10.3737 13.9883 10.2972L17.6288 12.428C17.8575 12.5623 17.9985 12.8075 18 13.0715Z" fill="#919EAB"/>
</svg>
