<svg width="25" height="25" viewBox="0 0 25 25" fill="none" xmlns="http://www.w3.org/2000/svg">
<g clip-path="url(#clip0_6387_55262)">
<path d="M9.16667 12.5C11.9242 12.5 14.1667 10.2575 14.1667 7.5C14.1667 4.7425 11.9242 2.5 9.16667 2.5C6.40917 2.5 4.16667 4.7425 4.16667 7.5C4.16667 10.2575 6.40917 12.5 9.16667 12.5ZM21.4133 18.445L20.6017 17.9767C20.74 17.5625 20.8333 17.1275 20.8333 16.6667C20.8333 16.2058 20.7408 15.7708 20.6017 15.3567L21.4133 14.8883C21.8117 14.6583 21.9483 14.1483 21.7183 13.75C21.4875 13.3508 20.9783 13.2142 20.58 13.445L19.7692 13.9133C19.1817 13.2517 18.3992 12.7675 17.5 12.585V11.6675C17.5 11.2075 17.1267 10.8342 16.6667 10.8342C16.2067 10.8342 15.8333 11.2075 15.8333 11.6675V12.585C14.9342 12.7683 14.1517 13.2525 13.5642 13.9133L12.7533 13.445C12.3525 13.2142 11.845 13.3508 11.615 13.75C11.385 14.1492 11.5217 14.6583 11.92 14.8883L12.7317 15.3567C12.5933 15.7708 12.5 16.2058 12.5 16.6667C12.5 17.1275 12.5925 17.5625 12.7317 17.9767L11.92 18.445C11.5217 18.675 11.385 19.185 11.615 19.5833C11.77 19.8508 12.0492 20 12.3375 20C12.4783 20 12.6217 19.9642 12.7533 19.8883L13.5642 19.42C14.1517 20.0817 14.9342 20.5658 15.8333 20.7483V21.6658C15.8333 22.1258 16.2067 22.4992 16.6667 22.4992C17.1267 22.4992 17.5 22.1258 17.5 21.6658V20.7483C18.3992 20.565 19.1817 20.0808 19.7692 19.42L20.58 19.8883C20.7117 19.9642 20.855 20 20.9958 20C21.2842 20 21.5642 19.8508 21.7183 19.5833C21.9483 19.1842 21.8117 18.675 21.4133 18.445ZM16.6667 17.9167C15.9775 17.9167 15.4167 17.3558 15.4167 16.6667C15.4167 15.9775 15.9775 15.4167 16.6667 15.4167C17.3558 15.4167 17.9167 15.9775 17.9167 16.6667C17.9167 17.3558 17.3558 17.9167 16.6667 17.9167ZM9.58333 16.6667C9.58333 16.2092 9.62917 15.745 9.72083 15.285C9.77583 15.0075 9.68583 14.7217 9.48333 14.525C9.28083 14.3283 8.9925 14.2483 8.71667 14.3108C5.1725 15.1242 2.5 18.2867 2.5 21.6667C2.5 22.1267 2.87333 22.5 3.33333 22.5H10.5308C10.8525 22.5 11.1458 22.315 11.2833 22.0242C11.4217 21.7333 11.38 21.3892 11.1767 21.14C10.1492 19.8808 9.58333 18.2925 9.58333 16.6667Z" fill="white"/>
</g>
<defs>
<clipPath id="clip0_6387_55262">
<rect width="20" height="20" fill="white" transform="translate(2.5 2.5)"/>
</clipPath>
</defs>
</svg>
