<svg width="25" height="25" viewBox="0 0 25 25" fill="none" xmlns="http://www.w3.org/2000/svg">
<g clip-path="url(#clip0_6387_55255)">
<path d="M18.5 2.5H17.3113C16.6375 2.5 16.0188 2.87375 15.7063 3.47L15.33 4.19C15.2412 4.3588 15.108 4.50017 14.9448 4.59885C14.7816 4.69753 14.5945 4.7498 14.4037 4.75H9.97125C9.5825 4.75 9.22625 4.53375 9.045 4.19L8.66875 3.47C8.35625 2.87375 7.7375 2.5 7.06375 2.5H6C5.175 2.5 4.5 3.175 4.5 4V21C4.5 21.825 5.175 22.5 6 22.5H18.5C19.325 22.5 20 21.825 20 21V4C20 3.175 19.325 2.5 18.5 2.5ZM16.4413 17.3162C16.3275 17.43 16.1725 17.5 16 17.5H8.375C8.03125 17.5 7.75 17.2188 7.75 16.875C7.75 16.7025 7.82 16.5475 7.93375 16.4338C8.0475 16.32 8.2025 16.25 8.375 16.25H16C16.3438 16.25 16.625 16.5312 16.625 16.875C16.625 17.0475 16.555 17.2025 16.4413 17.3162ZM16.4413 13.2537C16.3275 13.3675 16.1725 13.4375 16 13.4375H8.375C8.03125 13.4375 7.75 13.1563 7.75 12.8125C7.75 12.64 7.82 12.485 7.93375 12.3712C8.0475 12.2575 8.2025 12.1875 8.375 12.1875H16C16.3438 12.1875 16.625 12.4687 16.625 12.8125C16.625 12.985 16.555 13.14 16.4413 13.2537ZM16.4413 9.19125C16.3275 9.305 16.1725 9.375 16 9.375H8.375C8.03125 9.375 7.75 9.09375 7.75 8.75C7.75 8.5775 7.82 8.4225 7.93375 8.30875C8.0475 8.195 8.2025 8.125 8.375 8.125H16C16.3438 8.125 16.625 8.40625 16.625 8.75C16.625 8.9225 16.555 9.0775 16.4413 9.19125Z" fill="white"/>
<path d="M14.375 3.75H10.125C9.78125 3.75 9.5 3.46875 9.5 3.125C9.5 2.78125 9.78125 2.5 10.125 2.5H14.375C14.7187 2.5 15 2.78125 15 3.125C15 3.46875 14.7187 3.75 14.375 3.75Z" fill="white"/>
</g>
<defs>
<clipPath id="clip0_6387_55255">
<rect width="20" height="20" fill="white" transform="translate(2.5 2.5)"/>
</clipPath>
</defs>
</svg>
