<svg width="25" height="25" viewBox="0 0 25 25" fill="none" xmlns="http://www.w3.org/2000/svg">
<path d="M19.9341 13.3081L22.8027 16.7456H20.9277C20.874 18.7646 20.1221 20.4248 18.5229 21.6211C17.3755 22.4829 16.0767 22.7344 14.668 22.6245V20.271C14.8853 20.271 15.105 20.2856 15.3223 20.271C15.5688 20.2563 15.8301 20.2563 16.062 20.2002C16.9775 20.0049 17.6904 19.4897 18.1958 18.6816C18.5498 18.1104 18.7305 17.4707 18.7451 16.7603H17.063C18.0347 15.5933 18.9771 14.4482 19.9341 13.3057V13.3081ZM11.0864 13.728C11.3574 13.728 11.6064 13.7817 11.8237 13.9648C12.0703 14.1602 12.1924 14.4214 12.2217 14.7461V21.5015C12.2437 21.8628 12.085 22.2119 11.7969 22.4316C11.604 22.5757 11.3672 22.6489 11.1255 22.6416H3.87939C3.33008 22.6416 2.95166 22.3364 2.81494 21.8188C2.78564 21.7139 2.77344 21.6064 2.77344 21.499V14.8706C2.77344 14.314 3.06152 13.9087 3.56689 13.7695C3.67676 13.7427 3.80127 13.728 3.90869 13.728H11.0864ZM10.332 2.42676V4.78027H10.1807C9.78271 4.79492 9.38721 4.79492 9.00391 4.83398C8.4082 4.92432 7.854 5.19775 7.41943 5.61768C6.85303 6.13037 6.46973 6.81641 6.32568 7.56592C6.27197 7.80273 6.25732 8.03955 6.23047 8.29102H7.94189C6.98242 9.44824 6.02539 10.5908 5.06836 11.7456C4.11133 10.603 3.1543 9.4751 2.19727 8.31787H4.06982C4.10889 6.36963 4.82178 4.76807 6.31104 3.55469C7.48779 2.60742 8.85254 2.31445 10.332 2.42676ZM20.5859 2.3999C21.0522 2.3999 21.4063 2.58057 21.6113 3.01514C21.6797 3.1665 21.7212 3.34961 21.7212 3.51562C21.7358 5.74463 21.7212 7.98584 21.7212 10.2148C21.7212 10.7446 21.4209 11.1499 20.9277 11.2866C20.8179 11.3135 20.6934 11.3281 20.5859 11.3281H13.3936C13.1348 11.3257 12.8882 11.272 12.6831 11.1035C12.4072 10.8887 12.2461 10.5615 12.2461 10.2124V3.51562C12.2461 2.97119 12.561 2.58057 13.0518 2.44385C13.1616 2.41699 13.2861 2.40234 13.3936 2.40234H20.5859V2.3999Z" fill="white"/>
</svg>
