<svg width="19" height="19" viewBox="0 0 19 19" fill="none" xmlns="http://www.w3.org/2000/svg">
<g clip-path="url(#clip0_6298_68637)">
<path d="M16.5988 3.04305H14.2367C13.8721 1.27036 12.3127 -0.00259685 10.5029 -0.00488281H8.97894C7.16914 -0.00259685 5.60976 1.27036 5.24522 3.04305H2.88307C2.46224 3.04305 2.12109 3.3842 2.12109 3.80503C2.12109 4.22586 2.46224 4.56704 2.88307 4.56704H3.64504V14.4729C3.64758 16.576 5.35187 18.2803 7.45499 18.2828H12.0269C14.13 18.2803 15.8343 16.576 15.8369 14.4729V4.56704H16.5988C17.0197 4.56704 17.3608 4.22589 17.3608 3.80506C17.3608 3.38423 17.0197 3.04305 16.5988 3.04305ZM8.97898 12.9489C8.97898 13.3697 8.63783 13.7109 8.217 13.7109C7.79613 13.7109 7.45499 13.3697 7.45499 12.9489V8.37699C7.45499 7.95615 7.79613 7.61501 8.21697 7.61501C8.6378 7.61501 8.97894 7.95615 8.97894 8.37699V12.9489H8.97898ZM12.0269 12.9489C12.0269 13.3697 11.6858 13.7109 11.2649 13.7109C10.8441 13.7109 10.503 13.3697 10.503 12.9489V8.37699C10.503 7.95615 10.8441 7.61501 11.2649 7.61501C11.6858 7.61501 12.0269 7.95615 12.0269 8.37699V12.9489ZM6.82332 3.04305C7.14742 2.13042 8.01052 1.52025 8.97898 1.51907H10.503C11.4714 1.52025 12.3345 2.13042 12.6586 3.04305H6.82332Z" fill="#A5A1A1"/>
</g>
<defs>
<clipPath id="clip0_6298_68637">
<rect width="18.2877" height="18.2877" fill="white" transform="translate(0.598633 -0.00488281)"/>
</clipPath>
</defs>
</svg>
