<svg width="25" height="25" viewBox="0 0 25 25" fill="none" xmlns="http://www.w3.org/2000/svg">
<path d="M19.9998 5.83332H17.4165C17.0178 3.89465 15.3124 2.5025 13.3331 2.5H11.6665C9.68721 2.5025 7.98182 3.89465 7.58314 5.83332H4.99982C4.53959 5.83332 4.1665 6.20641 4.1665 6.66664C4.1665 7.12687 4.53959 7.5 4.99982 7.5H5.83314V18.3333C5.83592 20.6334 7.69979 22.4973 9.99982 22.5H14.9998C17.2999 22.4973 19.1637 20.6334 19.1665 18.3333V7.5H19.9998C20.4601 7.5 20.8331 7.12691 20.8331 6.66668C20.8331 6.20645 20.4601 5.83332 19.9998 5.83332ZM11.6665 16.6667C11.6665 17.1269 11.2934 17.5 10.8332 17.5C10.3729 17.5 9.99982 17.1269 9.99982 16.6667V11.6667C9.99982 11.2064 10.3729 10.8334 10.8331 10.8334C11.2934 10.8334 11.6665 11.2064 11.6665 11.6667V16.6667H11.6665ZM14.9998 16.6667C14.9998 17.1269 14.6267 17.5 14.1665 17.5C13.7063 17.5 13.3332 17.1269 13.3332 16.6667V11.6667C13.3332 11.2064 13.7063 10.8334 14.1665 10.8334C14.6267 10.8334 14.9998 11.2064 14.9998 11.6667V16.6667ZM9.309 5.83332C9.66346 4.83523 10.6074 4.16793 11.6665 4.16664H13.3332C14.3923 4.16793 15.3362 4.83523 15.6907 5.83332H9.309Z" fill="white"/>
</svg>
