<svg width="17" height="11" viewBox="0 0 17 11" fill="none" xmlns="http://www.w3.org/2000/svg">
<path d="M0.966873 4.51065H13.7006L10.916 1.67551C10.7352 1.49145 10.6337 1.2418 10.6337 0.981492C10.6337 0.721184 10.7352 0.471538 10.916 0.287472C11.0968 0.103407 11.342 0 11.5976 0C11.8533 0 12.0985 0.103407 12.2793 0.287472L16.7172 4.80598C16.8069 4.89705 16.878 5.00523 16.9265 5.12432C16.975 5.24341 17 5.37107 17 5.5C17 5.62893 16.975 5.75659 16.9265 5.87568C16.878 5.99477 16.8069 6.10295 16.7172 6.19402L12.2793 10.7125C12.1898 10.8037 12.0835 10.876 11.9666 10.9253C11.8496 10.9746 11.7242 11 11.5976 11C11.4711 11 11.3457 10.9746 11.2287 10.9253C11.1118 10.876 11.0055 10.8037 10.916 10.7125C10.8265 10.6214 10.7555 10.5132 10.707 10.3941C10.6586 10.275 10.6337 10.1474 10.6337 10.0185C10.6337 9.88962 10.6586 9.76199 10.707 9.64291C10.7555 9.52383 10.8265 9.41563 10.916 9.32449L13.7006 6.4795H0.966873C0.435093 6.4795 0 6.03651 0 5.49508C0 4.95364 0.435093 4.51065 0.966873 4.51065Z" fill="#919EAB"/>
</svg>
